<svg viewBox="0 0 500 500" xmlns="http://www.w3.org/2000/svg" xmlns:xlink="http://www.w3.org/1999/xlink" width="100%" id="blobSvg">
  <path id="blob" d="M427,281Q442,312,390,313Q338,314,359.5,372Q381,430,351.5,450.5Q322,471,286,455Q250,439,218,443Q186,447,180.5,400.5Q175,354,135.5,358Q96,362,71.5,339Q47,316,86,283Q125,250,104.5,223Q84,196,101.5,175.5Q119,155,115,106.5Q111,58,162,97Q213,136,231.5,77.5Q250,19,272.5,65Q295,111,340,87.5Q385,64,389,105Q393,146,377.5,180Q362,214,387,232Q412,250,427,281Z" fill="#d1d8e0"></path>
</svg>